<svg xmlns="http://www.w3.org/2000/svg" width="169.509" height="38.655" viewBox="0 0 169.509 38.655">
  <g id="Map4accessibility_logo_white" transform="translate(-41.81 -8.51)">
    <path id="Path_1" data-name="Path 1" d="M51.4,29.228a9.263,9.263,0,0,0-9.587,9.256c0,5.926,4.868,9.016,8.875,14.547a.437.437,0,0,0,.776,0c3.619-4.917,7.817-7.429,8.727-12.79A9.39,9.39,0,0,0,51.4,29.228ZM51.073,44.24a5.862,5.862,0,1,1,5.862-5.862A5.862,5.862,0,0,1,51.073,44.24Z" transform="translate(0 -6.1)" fill="#232245"/>
    <path id="Path_2" data-name="Path 2" d="M48.96,8.6a.092.092,0,0,1,.183,0A13.781,13.781,0,0,0,53.9,15.656a16.847,16.847,0,0,0,3.7,2.243c.656.31,1.333.564,2.032.825A12.445,12.445,0,0,1,62.1,19.953a11.33,11.33,0,0,1,2.116,1.806,11.682,11.682,0,0,1,1.616,2.257,13.848,13.848,0,0,1,1.573,5.044A17.99,17.99,0,0,1,67.3,34.1c-.056.409-.141.818-.226,1.22s-.19.8-.3,1.2a15.111,15.111,0,0,1-.705,1.982.092.092,0,0,1-.176-.021c-.1-1.5-.226-2.963-.423-4.388a31.04,31.04,0,0,0-.924-4.437,15.407,15.407,0,0,0-1.707-3.873,9.651,9.651,0,0,0-2.73-2.822,10.814,10.814,0,0,0-1.764-.945c-.381-.169-.783-.339-1.164-.522s-.769-.381-1.143-.607a16.113,16.113,0,0,1-4.063-3.252,12.79,12.79,0,0,1-2.582-4.473,11.289,11.289,0,0,1-.494-2.49A8.9,8.9,0,0,1,48.96,8.6Z" transform="translate(-2.077 0)" fill="#232245"/>
    <circle id="Ellipse_1" data-name="Ellipse 1" cx="3.45" cy="3.45" r="3.45" transform="translate(55.411 9.829)" fill="#232245"/>
    <path id="Path_3" data-name="Path 3" d="M86.757,44.983l-1.305-3.034c-.162-.381-.325-.755-.48-1.129l-.423-1.009c-.127-.3-.233-.543-.31-.705s-.12-.3-.134-.325-.063-.155-.113-.289-.12-.3-.176-.473-.12-.339-.176-.515a2.963,2.963,0,0,1-.12-.459c.056.367.092.705.113.995s0,.543,0,.705v9.171H82.39V35.36h1.467a4.556,4.556,0,0,0,.3.705c.169.381.381.861.614,1.411s.48,1.143.755,1.778.529,1.235.762,1.8.48,1.192.642,1.644.247.705.254.755c0-.056.1-.3.254-.755s.367-1,.628-1.644.487-1.164.762-1.8.522-1.228.762-1.778.43-1.016.607-1.411.275-.628.3-.705h1.489V47.946H90.707V38.069a7.653,7.653,0,0,1,.113-.995,2.964,2.964,0,0,1-.12.459c-.056.176-.113.346-.176.515s-.12.332-.169.473l-.12.289s-.056.127-.134.325-.183.444-.31.705l-.423,1.009c-.155.374-.317.748-.48,1.129L87.6,44.983Z" transform="translate(-11.952 -7.908)" fill="#232245"/>
    <path id="Path_4" data-name="Path 4" d="M106.473,48.705h.536v1.016h-1.2a.988.988,0,0,1-.84-.353,1.15,1.15,0,0,1-.275-.705,4.3,4.3,0,0,1-.705.649,4.232,4.232,0,0,1-.776.451,2.257,2.257,0,0,1-.952.2,2.384,2.384,0,0,1-.917-.169,1.94,1.94,0,0,1-.705-.473,2.18,2.18,0,0,1-.473-.762,2.631,2.631,0,0,1-.176-.995,2.377,2.377,0,0,1,.275-1.185,2.406,2.406,0,0,1,.705-.8,3.379,3.379,0,0,1,.966-.494,6.724,6.724,0,0,1,1.051-.261,8.577,8.577,0,0,1,.966-.106l.705-.042v-.67a1.312,1.312,0,0,0-1.489-1.481,4.317,4.317,0,0,0-.938.092,5.988,5.988,0,0,0-.705.212l-.353.134a2.185,2.185,0,0,0-.317.148l-.4-.967a3.394,3.394,0,0,1,.705-.367,6.307,6.307,0,0,1,.917-.254,7.175,7.175,0,0,1,1.277-.134h.106a3.408,3.408,0,0,1,1.15.169,1.891,1.891,0,0,1,.755.473,1.813,1.813,0,0,1,.416.748,3.294,3.294,0,0,1,.127.945v3.838a5.747,5.747,0,0,0,0,.621.706.706,0,0,0,.12.409.3.3,0,0,0,.169.1.706.706,0,0,0,.169,0Zm-1.834-3.019h-.063q-.3,0-.868.042a4.6,4.6,0,0,0-1.108.219,2.723,2.723,0,0,0-.952.522,1.22,1.22,0,0,0-.409.966,1.75,1.75,0,0,0,.071.5,1.192,1.192,0,0,0,.24.459,1.242,1.242,0,0,0,.473.332,1.961,1.961,0,0,0,.755.127,1.291,1.291,0,0,0,.642-.2,4.056,4.056,0,0,0,.607-.437,6.346,6.346,0,0,0,.614-.649Z" transform="translate(-17.135 -9.684)" fill="#232245"/>
    <path id="Path_5" data-name="Path 5" d="M112,42.728V41.712h1.185a.656.656,0,0,1,.381.113,1.164,1.164,0,0,1,.282.275,1.51,1.51,0,0,1,.183.325l.1.268.2-.226a2.709,2.709,0,0,1,.557-.459,4.48,4.48,0,0,1,.938-.452,4.155,4.155,0,0,1,1.369-.2,2.116,2.116,0,0,1,1.855.974,4.825,4.825,0,0,1,.663,2.744,6,6,0,0,1-.1,1.115,4.938,4.938,0,0,1-.317,1.1,4.818,4.818,0,0,1-1.129,1.785,2.751,2.751,0,0,1-1.94.854h-.1a4.726,4.726,0,0,1-.959-.113,4.479,4.479,0,0,1-.79-.226v5.284h-1.27V43.624a1.594,1.594,0,0,0-.134-.663.36.36,0,0,0-.183-.183.508.508,0,0,0-.212-.049Zm2.328,5.432c0,.063.056.127.155.2a2.386,2.386,0,0,0,.381.19,2.6,2.6,0,0,0,.515.148,2.624,2.624,0,0,0,.571.063h.148a1.658,1.658,0,0,0,.981-.4,3.069,3.069,0,0,0,.705-.91,5.573,5.573,0,0,0,.586-2.377V44.047a2.631,2.631,0,0,0-.183-.832,1.2,1.2,0,0,0-1.22-.776,2.455,2.455,0,0,0-.924.183,4.564,4.564,0,0,0-.8.423,4.884,4.884,0,0,0-.6.451l-.289.261Z" transform="translate(-20.673 -9.675)" fill="#232245"/>
    <path id="Path_6" data-name="Path 6" d="M134.078,43.953V45.6h-1.411V48.37h-1.728V45.6H126V44.087l4.734-7.287h1.9v7.153Zm-3.139-4.55-2.885,4.55h2.885Z" transform="translate(-24.797 -8.332)" fill="#232245"/>
    <path id="Path_7" data-name="Path 7" d="M150.475,47.937h-2L147.5,44.55h-3.739l-.966,3.386H140.81l3.852-12.607h1.954Zm-3.485-5.079-.367-1.185-.317-1.044c-.113-.36-.2-.705-.268-.959a6.515,6.515,0,0,1-.141-.705q-.063-.381-.106-.705c-.035-.247-.063-.473-.085-.705s-.042-.381-.049-.5h-.035a1.818,1.818,0,0,1-.056.5,4.784,4.784,0,0,0-.092.705c-.028.268-.071.487-.113.705s-.078.473-.12.705-.176.6-.289.959-.212.705-.31,1.044l-.367,1.185Z" transform="translate(-29.159 -7.899)" fill="#232245"/>
    <path id="Path_8" data-name="Path 8" d="M164.02,48.979a7.372,7.372,0,0,1-.981.466,7.809,7.809,0,0,1-.995.332,5.143,5.143,0,0,1-1.122.169h-.049a2.991,2.991,0,0,1-1.333-.289,2.744,2.744,0,0,1-.995-.776,3.527,3.527,0,0,1-.614-1.27,5.946,5.946,0,0,1-.212-1.644,7.267,7.267,0,0,1,.183-1.587,4.487,4.487,0,0,1,.6-1.46,3.435,3.435,0,0,1,1.072-1.093,2.942,2.942,0,0,1,1.615-.416,3.4,3.4,0,0,1,1.157.19,5.476,5.476,0,0,1,.91.423,5.713,5.713,0,0,1,.811.6l-.705,1.354a3.75,3.75,0,0,0-.332-.254l-.353-.233a4.562,4.562,0,0,0-.705-.332,2,2,0,0,0-.705-.148,1.58,1.58,0,0,0-.832.2,1.453,1.453,0,0,0-.536.557,2.871,2.871,0,0,0-.289.861,5.885,5.885,0,0,0-.092,1.1,6.927,6.927,0,0,0,.063.945,3.041,3.041,0,0,0,.247.847,1.545,1.545,0,0,0,.473.6,1.277,1.277,0,0,0,.783.226,2.822,2.822,0,0,0,.748-.12,5.643,5.643,0,0,0,.783-.268,7.05,7.05,0,0,0,.854-.4Z" transform="translate(-34.139 -9.689)" fill="#232245"/>
    <path id="Path_9" data-name="Path 9" d="M176.358,48.979a7.369,7.369,0,0,1-.981.466,7.81,7.81,0,0,1-.995.332,5.079,5.079,0,0,1-1.122.169h-.049a2.991,2.991,0,0,1-1.333-.289,2.821,2.821,0,0,1-1.023-.776,3.527,3.527,0,0,1-.614-1.27,5.947,5.947,0,0,1-.212-1.644,7.267,7.267,0,0,1,.183-1.587,4.487,4.487,0,0,1,.6-1.46,3.457,3.457,0,0,1,1.079-1.093,2.907,2.907,0,0,1,1.608-.416,3.4,3.4,0,0,1,1.157.19,5.473,5.473,0,0,1,.91.423,5.712,5.712,0,0,1,.811.6l-.705,1.354a3.753,3.753,0,0,0-.332-.254L175,43.49a5.042,5.042,0,0,0-.705-.332,2,2,0,0,0-.705-.148,1.58,1.58,0,0,0-.832.2,1.453,1.453,0,0,0-.536.557,2.871,2.871,0,0,0-.289.861,5.879,5.879,0,0,0-.092,1.1,6.941,6.941,0,0,0,.063.945,3.041,3.041,0,0,0,.247.847,1.545,1.545,0,0,0,.473.6,1.277,1.277,0,0,0,.783.226,2.78,2.78,0,0,0,.748-.12,6.1,6.1,0,0,0,.79-.268,7.508,7.508,0,0,0,.847-.4Z" transform="translate(-37.765 -9.689)" fill="#232245"/>
    <path id="Path_10" data-name="Path 10" d="M188.79,48.994l-.473.261c-.162.078-.317.155-.473.219a7.318,7.318,0,0,1-.917.332,3.683,3.683,0,0,1-.967.141,3.852,3.852,0,0,1-1.545-.31,3.527,3.527,0,0,1-1.22-.868,4.184,4.184,0,0,1-.8-1.347,5,5,0,0,1-.289-1.764,5.326,5.326,0,0,1,.254-1.672,4.452,4.452,0,0,1,.705-1.354,3.421,3.421,0,0,1,1.115-.9,3.168,3.168,0,0,1,1.411-.325h.113a3.1,3.1,0,0,1,1.235.247,2.667,2.667,0,0,1,.861.607,2.934,2.934,0,0,1,.536.84,4.876,4.876,0,0,1,.31.938,5.692,5.692,0,0,1,.134.931q0,.455,0,.8v.529h-4.938a3.274,3.274,0,0,0,.212.663,2.561,2.561,0,0,0,.416.642,2.5,2.5,0,0,0,.642.5,1.841,1.841,0,0,0,.875.2,2.208,2.208,0,0,0,.656-.113q.36-.113.705-.254l.381-.176a2.921,2.921,0,0,0,.388-.2Zm-1.63-4.233a4.24,4.24,0,0,0-.092-.593,1.912,1.912,0,0,0-.254-.607,1.411,1.411,0,0,0-.451-.466,1.178,1.178,0,0,0-.705-.183,1.5,1.5,0,0,0-.783.183,1.616,1.616,0,0,0-.515.459,2.117,2.117,0,0,0-.3.6,3.588,3.588,0,0,0-.127.607Z" transform="translate(-41.323 -9.69)" fill="#232245"/>
    <path id="Path_11" data-name="Path 11" d="M197.078,43.741a.705.705,0,0,0,.416.656,7.448,7.448,0,0,0,.966.423l.8.317a3.119,3.119,0,0,1,.705.423,1.989,1.989,0,0,1,.515.642,2.046,2.046,0,0,1,.2.952,2.709,2.709,0,0,1-.233,1.143,2.822,2.822,0,0,1-.628.875,2.709,2.709,0,0,1-.917.564,3.083,3.083,0,0,1-1.108.2,4.324,4.324,0,0,1-1.044-.134,9.171,9.171,0,0,1-.938-.3,7,7,0,0,1-.952-.43l.705-1.411a7.223,7.223,0,0,0,.8.353,4.98,4.98,0,0,0,.705.233,3.259,3.259,0,0,0,.748.1.959.959,0,0,0,.705-.332,1.136,1.136,0,0,0,.31-.783.6.6,0,0,0-.12-.36,1.072,1.072,0,0,0-.31-.275,3.483,3.483,0,0,0-.43-.219l-.508-.2-.783-.325a3.288,3.288,0,0,1-.705-.444,2.152,2.152,0,0,1-.536-.642,1.926,1.926,0,0,1-.2-.924,2.37,2.37,0,0,1,.783-1.785,2.547,2.547,0,0,1,.875-.508A3.09,3.09,0,0,1,198,41.4a5.2,5.2,0,0,1,.938.148,8.143,8.143,0,0,1,.811.247c.275.113.536.24.783.367l-.705,1.411c-.233-.12-.437-.226-.621-.3a4.066,4.066,0,0,0-.586-.2,2.526,2.526,0,0,0-.628-.085,1.326,1.326,0,0,0-.649.183A.628.628,0,0,0,197.078,43.741Z" transform="translate(-45.081 -9.686)" fill="#232245"/>
    <path id="Path_12" data-name="Path 12" d="M208.235,43.741a.705.705,0,0,0,.416.656,8.036,8.036,0,0,0,.974.423l.8.317a3.019,3.019,0,0,1,.705.423,2.2,2.2,0,0,1,.515.642,2.046,2.046,0,0,1,.2.952,2.709,2.709,0,0,1-.233,1.143,2.822,2.822,0,0,1-.628.875,2.744,2.744,0,0,1-.91.564,3.126,3.126,0,0,1-1.115.2,4.232,4.232,0,0,1-1.037-.134,9.317,9.317,0,0,1-.945-.3,7,7,0,0,1-.952-.43l.705-1.411a7.964,7.964,0,0,0,.8.353,4.882,4.882,0,0,0,.705.233,3.316,3.316,0,0,0,.755.1.938.938,0,0,0,.705-.332,1.136,1.136,0,0,0,.31-.783.6.6,0,0,0-.12-.36,1.044,1.044,0,0,0-.3-.275,3.6,3.6,0,0,0-.437-.219l-.508-.2-.783-.325a3.288,3.288,0,0,1-.705-.444,2.116,2.116,0,0,1-.529-.642,1.849,1.849,0,0,1-.212-.924,2.321,2.321,0,0,1,.212-.988,2.391,2.391,0,0,1,.571-.8,2.617,2.617,0,0,1,.875-.508,3.09,3.09,0,0,1,1.093-.155,5.277,5.277,0,0,1,.945.148c.3.078.571.162.8.247a8.113,8.113,0,0,1,.783.367l-.705,1.411c-.233-.12-.437-.226-.614-.3a3.887,3.887,0,0,0-.593-.2,2.484,2.484,0,0,0-.628-.085,1.326,1.326,0,0,0-.649.183A.628.628,0,0,0,208.235,43.741Z" transform="translate(-48.365 -9.686)" fill="#232245"/>
    <path id="Path_13" data-name="Path 13" d="M220.226,35.872a1.263,1.263,0,0,1-.367.917,1.322,1.322,0,1,1,.367-.924Zm-.416,11.838h-1.82v-8h1.82Z" transform="translate(-51.785 -7.672)" fill="#232245"/>
    <path id="Path_14" data-name="Path 14" d="M229.415,39.327a2.25,2.25,0,0,1,1.2.31,2.582,2.582,0,0,1,.832.832,4.168,4.168,0,0,1,.48,1.228,6.668,6.668,0,0,1,.162,1.481,5.581,5.581,0,0,1-.275,1.735,5.236,5.236,0,0,1-.762,1.51,4.085,4.085,0,0,1-1.122,1.058,2.561,2.561,0,0,1-1.411.4h-.529a3.581,3.581,0,0,1-.6-.078,5.172,5.172,0,0,1-.593-.127,2.01,2.01,0,0,1-.48-.219,2.616,2.616,0,0,1-.381-.31,1.663,1.663,0,0,1-.317-.388,1.318,1.318,0,0,1-.226-.459,1.924,1.924,0,0,1-.063-.508V34.41h1.735v5.644a5.319,5.319,0,0,1,1.1-.515A3.88,3.88,0,0,1,229.415,39.327Zm-1.023,6.921a1.234,1.234,0,0,0,.79-.282,2.343,2.343,0,0,0,.586-.705,3.71,3.71,0,0,0,.367-.995,4.524,4.524,0,0,0,.127-1.037c0-.282,0-.557,0-.84a3.223,3.223,0,0,0-.134-.705,1.411,1.411,0,0,0-.317-.522.8.8,0,0,0-.578-.2,2.116,2.116,0,0,0-.579.078,4.126,4.126,0,0,0-.586.212,5.422,5.422,0,0,0-.536.268c-.162.092-.3.169-.4.24v4.183s0,.071.12.106a2.55,2.55,0,0,0,.317.12,3.283,3.283,0,0,0,.416.1,2.385,2.385,0,0,0,.4-.021Z" transform="translate(-54.053 -7.628)" fill="#232245"/>
    <path id="Path_15" data-name="Path 15" d="M240.666,35.872a1.263,1.263,0,0,1-.367.917,1.322,1.322,0,1,1,.367-.924Zm-.416,11.838h-1.82v-8h1.82Z" transform="translate(-57.805 -7.672)" fill="#232245"/>
    <path id="Path_16" data-name="Path 16" d="M250.148,47.334a2.531,2.531,0,0,1-.268.148l-.268.134a4.557,4.557,0,0,1-.55.183,2.483,2.483,0,0,1-.649.085,3.2,3.2,0,0,1-.988-.127,1.2,1.2,0,0,1-.614-.409,1.741,1.741,0,0,1-.3-.705,6.066,6.066,0,0,1-.085-1.1V34.41h1.735v11.6a.346.346,0,0,0,.106.233.4.4,0,0,0,.31.12,1.65,1.65,0,0,0,.324-.049,1.082,1.082,0,0,0,.36-.12l.4-.169Z" transform="translate(-60.267 -7.628)" fill="#232245"/>
    <path id="Path_17" data-name="Path 17" d="M257.337,35.884a1.291,1.291,0,0,1-.367.917,1.228,1.228,0,0,1-.917.381,1.206,1.206,0,0,1-.917-.374,1.326,1.326,0,0,1,0-1.834,1.312,1.312,0,0,1,1.834,0,1.284,1.284,0,0,1,.367.91Zm-.416,11.838H255.1v-8h1.82Z" transform="translate(-62.723 -7.684)" fill="#232245"/>
    <path id="Path_18" data-name="Path 18" d="M264.583,40.357h2.6v1.531h-2.6v6.49h-1.735v-6.49h-1.3V40.357h1.3V36.83h1.735Z" transform="translate(-64.721 -8.341)" fill="#232245"/>
    <path id="Path_19" data-name="Path 19" d="M273.583,55.1a3.443,3.443,0,0,1-.776-.1c-.268-.071-.522-.148-.755-.233l-.416-.169-.416-.183.663-1.5c.233.127.437.226.621.3a4.442,4.442,0,0,0,.564.2,1.792,1.792,0,0,0,.55.092.48.48,0,0,0,.473-.289,4.353,4.353,0,0,0,.275-.705l.67-2.871a1.5,1.5,0,0,1-.706-.5,3.139,3.139,0,0,1-.508-.847v-.049l-.275-.705c-.106-.289-.212-.6-.332-.924s-.24-.705-.36-1.03-.24-.705-.346-1.03-.289-.79-.43-1.206-.282-.854-.437-1.3l1.615-.614,2.2,6.434a.085.085,0,0,0,0,.049.245.245,0,0,0,0,.042h0l1.8-6.554,1.63.635-2.956,11.069a4.812,4.812,0,0,1-.3.769,2.54,2.54,0,0,1-.466.642,2.116,2.116,0,0,1-.706.43,2.4,2.4,0,0,1-.882.141Z" transform="translate(-67.569 -9.69)" fill="#232245"/>
  </g>
</svg>
